<svg width="29" height="32" viewBox="0 0 29 32" fill="none" xmlns="http://www.w3.org/2000/svg">
<g clip-path="url(#clip0)">
<path d="M26.9746 7.15863C26.2729 6.212 25.2947 5.1055 24.2204 4.04287C23.1461 2.98025 22.0274 2.01275 21.0704 1.31856C19.441 0.136688 18.6506 0 18.1978 0H2.52747C1.13382 0 0 1.1215 0 2.5V29.5C0 30.8785 1.13382 32 2.52747 32H25.7802C27.1739 32 28.3077 30.8785 28.3077 29.5V10C28.3077 9.55213 28.1696 8.77031 26.9746 7.15863ZM22.7907 5.45706C23.7606 6.41644 24.522 7.282 25.0837 8H20.2198V3.18919C20.9459 3.74481 21.8209 4.49788 22.7907 5.45706ZM26.2857 29.5C26.2857 29.771 26.0542 30 25.7802 30H2.52747C2.25349 30 2.02198 29.771 2.02198 29.5V2.5C2.02198 2.229 2.25349 2 2.52747 2H18.1978V9C18.1978 9.55225 18.6504 10 19.2088 10H26.2857V29.5Z" fill="#497ADE"/>
<path d="M6.3975 23.8622C6.3975 23.3502 6.50827 22.8948 6.72981 22.496C6.95135 22.0923 7.25904 21.7797 7.65289 21.5582C8.05165 21.3317 8.50212 21.2185 9.00427 21.2185C9.61965 21.2185 10.1464 21.3809 10.5846 21.7059C11.0227 22.0308 11.3157 22.4739 11.4633 23.0351H10.075C9.97166 22.8185 9.82396 22.6535 9.63196 22.5403C9.44489 22.4271 9.23073 22.3705 8.9895 22.3705C8.60058 22.3705 8.2855 22.5059 8.04427 22.7766C7.80304 23.0474 7.68242 23.4092 7.68242 23.8622C7.68242 24.3151 7.80304 24.6769 8.04427 24.9477C8.2855 25.2185 8.60058 25.3539 8.9895 25.3539C9.23073 25.3539 9.44489 25.2972 9.63196 25.184C9.82396 25.0708 9.97166 24.9059 10.075 24.6892H11.4633C11.3157 25.2505 11.0227 25.6935 10.5846 26.0185C10.1464 26.3385 9.61965 26.4985 9.00427 26.4985C8.50212 26.4985 8.05165 26.3877 7.65289 26.1662C7.25904 25.9397 6.95135 25.6271 6.72981 25.2283C6.50827 24.8295 6.3975 24.3742 6.3975 23.8622ZM14.1123 26.5132C13.7333 26.5132 13.3936 26.4517 13.0933 26.3286C12.793 26.2055 12.5517 26.0234 12.3696 25.7822C12.1923 25.5409 12.0988 25.2505 12.089 24.9108H13.433C13.4527 25.1028 13.5191 25.2505 13.6323 25.3539C13.7456 25.4523 13.8933 25.5015 14.0754 25.5015C14.2625 25.5015 14.4102 25.4597 14.5185 25.376C14.6268 25.2874 14.681 25.1668 14.681 25.0142C14.681 24.8862 14.6367 24.7803 14.548 24.6966C14.4643 24.6129 14.3585 24.544 14.2305 24.4899C14.1074 24.4357 13.9302 24.3742 13.6988 24.3052C13.364 24.2019 13.0908 24.0985 12.8791 23.9951C12.6674 23.8917 12.4853 23.7391 12.3327 23.5372C12.18 23.3354 12.1037 23.072 12.1037 22.7471C12.1037 22.2646 12.2785 21.888 12.628 21.6172C12.9776 21.3415 13.433 21.2037 13.9942 21.2037C14.5653 21.2037 15.0256 21.3415 15.3751 21.6172C15.7247 21.888 15.9117 22.2671 15.9363 22.7545H14.5702C14.5603 22.5871 14.4988 22.4566 14.3856 22.3631C14.2723 22.2646 14.1271 22.2154 13.9499 22.2154C13.7973 22.2154 13.6742 22.2572 13.5807 22.3409C13.4871 22.4197 13.4403 22.5354 13.4403 22.688C13.4403 22.8554 13.5191 22.9859 13.6767 23.0794C13.8342 23.1729 14.0803 23.2739 14.4151 23.3822C14.7499 23.4954 15.0207 23.6037 15.2274 23.7071C15.4391 23.8105 15.6213 23.9606 15.7739 24.1575C15.9265 24.3545 16.0028 24.608 16.0028 24.9182C16.0028 25.2135 15.9265 25.4819 15.7739 25.7231C15.6262 25.9643 15.4096 26.1563 15.124 26.2991C14.8385 26.4419 14.5013 26.5132 14.1123 26.5132ZM21.6464 21.2775L19.8076 26.4615H18.2273L16.3885 21.2775H17.7325L19.0175 25.1914L20.3098 21.2775H21.6464Z" fill="#497ADE"/>
</g>
<defs>
<clipPath id="clip0">
<rect width="28.3077" height="32" fill="white"/>
</clipPath>
</defs>
</svg>
